<svg width="21" height="20" viewBox="0 0 21 20" fill="none" xmlns="http://www.w3.org/2000/svg">
<g filter="url(#filter0_d_1566_11)">
<path d="M18.9935 16.7563L15.0219 12.7847C16.022 11.5177 16.6249 9.92262 16.6249 8.1875C16.6249 4.08638 13.2885 0.75 9.18738 0.75C5.08625 0.75 1.74988 4.08638 1.74988 8.1875C1.74988 12.2886 5.08625 15.625 9.18738 15.625C10.9234 15.625 12.5176 15.023 13.7846 14.022L17.7563 17.9937C17.9269 18.1643 18.1509 18.25 18.3749 18.25C18.5989 18.25 18.8229 18.1643 18.9935 17.9937C19.3356 17.6515 19.3356 17.0985 18.9935 16.7563ZM3.49988 8.1875C3.49988 5.0515 6.05138 2.5 9.18738 2.5C12.3234 2.5 14.8749 5.0515 14.8749 8.1875C14.8749 11.3235 12.3234 13.875 9.18738 13.875C6.05138 13.875 3.49988 11.3235 3.49988 8.1875Z" fill="white"/>
</g>
<defs>
<filter id="filter0_d_1566_11" x="-2.25012" y="0.75" width="25.5002" height="25.5" filterUnits="userSpaceOnUse" color-interpolation-filters="sRGB">
<feFlood flood-opacity="0" result="BackgroundImageFix"/>
<feColorMatrix in="SourceAlpha" type="matrix" values="0 0 0 0 0 0 0 0 0 0 0 0 0 0 0 0 0 0 127 0" result="hardAlpha"/>
<feOffset dy="4"/>
<feGaussianBlur stdDeviation="2"/>
<feComposite in2="hardAlpha" operator="out"/>
<feColorMatrix type="matrix" values="0 0 0 0 0 0 0 0 0 0 0 0 0 0 0 0 0 0 0.25 0"/>
<feBlend mode="normal" in2="BackgroundImageFix" result="effect1_dropShadow_1566_11"/>
<feBlend mode="normal" in="SourceGraphic" in2="effect1_dropShadow_1566_11" result="shape"/>
</filter>
</defs>
</svg>
